<svg preserveAspectRatio="none" width="100%" height="100%" overflow="visible" style="display: block;" viewBox="0 0 18 18" fill="none" xmlns="http://www.w3.org/2000/svg">
<path id="Vector" fill-rule="evenodd" clip-rule="evenodd" d="M0 1C0 0.447715 0.447715 0 1 0H12C12.5523 0 13 0.447715 13 1V9C13 9.55229 12.5523 10 12 10H6.41421L3.70711 12.7071C3.42111 12.9931 2.99099 13.0787 2.61732 12.9239C2.24364 12.7691 2 12.4045 2 12V10H1C0.447715 10 0 9.55229 0 9V1ZM2 8H3C3.55228 8 4 8.44772 4 9V9.58579L5.29289 8.29289C5.48043 8.10536 5.73478 8 6 8H11V2H2V8ZM14 6C14 5.44772 14.4477 5 15 5H17C17.5523 5 18 5.44772 18 6V14C18 14.5523 17.5523 15 17 15H16V17C16 17.4045 15.7564 17.7691 15.3827 17.9239C15.009 18.0787 14.5789 17.9931 14.2929 17.7071L11.5858 15H6C5.44772 15 5 14.5523 5 14C5 13.4477 5.44772 13 6 13H12C12.2652 13 12.5196 13.1054 12.7071 13.2929L14 14.5858V14C14 13.4477 14.4477 13 15 13H16V7H15C14.4477 7 14 6.55228 14 6Z" fill="var(--fill-0, #101828)"/>
</svg>
