<svg preserveAspectRatio="none" width="100%" height="100%" overflow="visible" style="display: block;" viewBox="0 0 18 18" fill="none" xmlns="http://www.w3.org/2000/svg">
<path id="Vector" fill-rule="evenodd" clip-rule="evenodd" d="M11.5088 2C11.4089 1.99988 11.3092 2.02757 11.2202 2.0824C11.1309 2.13738 11.0546 2.21837 11.0023 2.31934C10.9963 2.33101 10.99 2.34257 10.9835 2.354C9.8645 4.32048 8.47125 6.10981 6.84728 7.66508C6.80956 7.7012 6.76907 7.73432 6.72617 7.76412C6.64502 7.82049 6.56168 7.88046 6.47555 7.94243C6.0678 8.23581 5.59734 8.5743 5 8.79087V14.5C5 15.8807 3.88071 17 2.5 17C1.11929 17 0 15.8807 0 14.5V8C0 7.73478 0.105357 7.48043 0.292893 7.29289C0.48043 7.10536 0.734784 7 1 7L3.94707 7C4.4134 6.94515 4.68896 6.75124 5.28686 6.33047C5.35936 6.27946 5.43659 6.22511 5.51948 6.16726C6.97492 4.76316 8.22697 3.15099 9.23671 1.37978C9.4535 0.969743 9.77531 0.623368 10.1715 0.379404C10.574 0.131546 11.0369 -0.000402482 11.5103 9.22228e-07C11.8807 -7.13186e-05 12.2461 0.0807147 12.582 0.236089C12.918 0.391544 13.216 0.617661 13.457 0.897832C13.6979 1.17793 13.8767 1.50582 13.9828 1.85916C14.0889 2.21246 14.1204 2.58428 14.0755 2.95033C14.0672 3.01769 14.0521 3.08403 14.0304 3.14834L13.0681 6H15.415C15.5562 6.00006 15.7526 6.00079 15.9639 6.04933C16.1851 6.10014 16.3643 6.18863 16.5121 6.26757C16.91 6.48015 17.2494 6.78654 17.5035 7.15867C17.7574 7.53068 17.9191 7.95811 17.9765 8.40458C18.0334 8.8467 17.9867 9.29659 17.8398 9.71742L15.7452 16.1074L15.7374 16.1304C15.7305 16.1497 15.7234 16.1701 15.7159 16.1914C15.607 16.5026 15.4248 17.0229 15.0037 17.4075C14.5056 17.8625 13.8518 18 13.1204 18C11.1133 18 8.95999 17.3365 7.28609 16.8207C6.88631 16.6975 6.51388 16.5827 6.17731 16.4874C5.64591 16.337 5.33709 15.7843 5.48753 15.2529C5.63797 14.7215 6.19072 14.4126 6.72211 14.5631C7.1467 14.6833 7.58251 14.8167 8.02581 14.9524C9.68452 15.4602 11.448 16 13.1204 16C13.4911 16 13.624 15.9469 13.6559 15.9295C13.6616 15.9225 13.6772 15.901 13.7016 15.851C13.7429 15.7662 13.7821 15.6597 13.8485 15.4728L15.9426 9.0844L15.9502 9.06204C15.9955 8.93409 16.0104 8.79592 15.9929 8.65977C15.9753 8.52365 15.9263 8.3956 15.8517 8.28628C15.7771 8.17708 15.6798 8.09045 15.5696 8.03161C15.5432 8.01746 15.5238 8.00769 15.5105 8.00115C15.4906 8.00048 15.4611 8.00002 15.415 8C15.4149 8 15.4152 8 15.415 8H10.5C9.94771 8 9.5 7.55228 9.5 7C9.5 6.44772 9.94771 6 10.5 6H10.9572L12.0953 2.62765C12.0955 2.56216 12.0861 2.49699 12.0673 2.43455C12.041 2.34698 11.9974 2.26793 11.9408 2.2021C11.8842 2.13635 11.8162 2.08548 11.7423 2.05128C11.6684 2.01713 11.5895 1.99996 11.5105 2L11.5088 2ZM13.664 15.924C13.6643 15.9242 13.6622 15.9259 13.6572 15.9288C13.6613 15.9253 13.6638 15.9239 13.664 15.924ZM3 9H2V14.5C2 14.7761 2.22386 15 2.5 15C2.77614 15 3 14.7761 3 14.5V9Z" fill="var(--fill-0, #101828)"/>
</svg>
