<svg preserveAspectRatio="none" width="100%" height="100%" overflow="visible" style="display: block;" viewBox="0 0 20 16" fill="none" xmlns="http://www.w3.org/2000/svg">
<path id="Vector" fill-rule="evenodd" clip-rule="evenodd" d="M6 2C4.89543 2 4 2.89543 4 4C4 5.10457 4.89543 6 6 6C7.10457 6 8 5.10457 8 4C8 2.89543 7.10457 2 6 2ZM2 4C2 1.79086 3.79086 0 6 0C8.20914 0 10 1.79086 10 4C10 6.20914 8.20914 8 6 8C3.79086 8 2 6.20914 2 4ZM14 2C13.4078 2 12.8767 2.25615 12.509 2.66691C12.1407 3.07844 11.5085 3.11346 11.097 2.74513C10.6855 2.37681 10.6504 1.74461 11.0188 1.33309C11.7498 0.516351 12.8152 0 14 0C16.2091 0 18 1.79086 18 4C18 6.20914 16.2091 8 14 8C12.8152 8 11.7498 7.48365 11.0188 6.66691C10.6504 6.25539 10.6855 5.62319 11.097 5.25487C11.5085 4.88654 12.1407 4.92156 12.509 5.33309C12.8767 5.74385 13.4078 6 14 6C15.1046 6 16 5.10457 16 4C16 2.89543 15.1046 2 14 2ZM4 11C2.89543 11 2 11.8954 2 13V14H10V13C10 11.8954 9.10457 11 8 11H4ZM0 13C0 10.7909 1.79086 9 4 9H8C10.2091 9 12 10.7909 12 13V14C12 15.1046 11.1046 16 10 16H2C0.895431 16 0 15.1046 0 14V13ZM13 10C13 9.44771 13.4477 9 14 9H16C18.2091 9 20 10.7909 20 13V14C20 15.1046 19.1046 16 18 16H14C13.4477 16 13 15.5523 13 15C13 14.4477 13.4477 14 14 14H18V13C18 11.8954 17.1046 11 16 11H14C13.4477 11 13 10.5523 13 10Z" fill="var(--fill-0, #101828)"/>
</svg>
