<svg preserveAspectRatio="none" width="100%" height="100%" overflow="visible" style="display: block;" viewBox="0 0 20 12" fill="none" xmlns="http://www.w3.org/2000/svg">
<g id="Shape">
<path d="M10 2C6.77529 2 3.84946 3.27064 1.6924 5.34066C1.29392 5.72306 0.660889 5.71003 0.278487 5.31154C-0.103915 4.91306 -0.0908796 4.28003 0.307601 3.89763C2.82212 1.48457 6.23874 0 10 0C13.7613 0 17.1779 1.48457 19.6924 3.89763C20.0909 4.28003 20.1039 4.91306 19.7215 5.31154C19.3391 5.71003 18.7061 5.72306 18.3076 5.34066C16.1505 3.27064 13.2247 2 10 2Z" fill="var(--fill-0, black)"/>
<path d="M10.0001 6C7.77662 6 5.76651 6.90581 4.31553 8.37103C3.92692 8.76346 3.29376 8.76655 2.90134 8.37794C2.50891 7.98933 2.50582 7.35617 2.89443 6.96374C4.70562 5.13478 7.22128 4 10.0001 4C12.779 4 15.2947 5.13478 17.1058 6.96374C17.4945 7.35617 17.4914 7.98933 17.0989 8.37794C16.7065 8.76655 16.0734 8.76346 15.6847 8.37103C14.2338 6.90581 12.2237 6 10.0001 6Z" fill="var(--fill-0, black)"/>
<path d="M6.97236 11.3857C7.70735 10.5355 8.79056 10 9.99996 10C11.2094 10 12.2926 10.5355 13.0276 11.3857C13.3887 11.8036 14.0202 11.8495 14.438 11.4883C14.8559 11.1271 14.9018 10.4956 14.5406 10.0778C13.4419 8.8068 11.8146 8 9.99996 8C8.18533 8 6.55802 8.8068 5.45931 10.0778C5.09814 10.4956 5.14405 11.1271 5.56187 11.4883C5.97969 11.8495 6.61119 11.8036 6.97236 11.3857Z" fill="var(--fill-0, black)"/>
</g>
</svg>
