<svg preserveAspectRatio="none" width="100%" height="100%" overflow="visible" style="display: block;" viewBox="0 0 45 28" fill="none" xmlns="http://www.w3.org/2000/svg">
<g id="Group">
<g id="Group_2">
<path id="Vector" d="M26.975 9.40374C26.9498 10.0086 26.8966 10.5884 26.8238 11.1653C22.3457 13.3049 18.1589 11.2661 18.1421 11.2577C18.0553 10.6864 17.988 10.1123 17.9516 9.51574C18.2736 9.68657 22.777 11.8542 26.975 9.40374Z" fill="var(--fill-0, white)"/>
<path id="Vector_2" d="M22.4623 12.3266C19.9199 12.3266 18.0885 11.4345 18.0608 11.4207C18.0078 11.3943 17.971 11.3437 17.9621 11.2852C17.8667 10.6572 17.8038 10.0821 17.77 9.52701C17.7659 9.46128 17.7978 9.39851 17.8531 9.36286C17.9085 9.32728 17.9789 9.32431 18.037 9.35508C18.0823 9.37905 22.6239 11.733 26.8834 9.24666C26.9408 9.21317 27.012 9.2136 27.069 9.24795C27.126 9.2823 27.1598 9.34495 27.157 9.41142C27.1332 9.98233 27.0833 10.5635 27.0045 11.1882C26.9968 11.2496 26.9582 11.3029 26.9024 11.3296C25.332 12.08 23.7988 12.3266 22.4623 12.3266ZM18.3075 11.1332C18.9118 11.3985 22.6736 12.8968 26.6556 11.0435C26.7116 10.5845 26.7516 10.149 26.7767 9.72304C23.062 11.706 19.2209 10.2828 18.155 9.8125C18.1884 10.2328 18.2388 10.6683 18.3075 11.1332Z" fill="var(--fill-0, #1E2939)"/>
</g>
<g id="Vector_3">
</g>
<g id="Vector_4">
</g>
<g id="Group_3">
<path id="Vector_5" d="M25.1763 27.6742H44.711L41.4035 14.2148C41.1795 13.3018 40.5325 12.5513 39.6588 12.1955L27.7676 7.33943C27.292 7.1455 26.9574 6.72954 26.8531 6.23999C27.6125 12.9046 25.0032 14.9637 25.1763 27.6742Z" fill="var(--fill-0, #F3F4F6)"/>
<path id="Vector_6" d="M44.711 27.8562H25.1763C25.0767 27.8562 24.9956 27.7763 24.9943 27.6767C24.9024 20.9313 25.5935 17.1703 26.1488 14.1483C26.6392 11.479 27.0266 9.37079 26.6722 6.26059C26.6612 6.16409 26.7279 6.07593 26.8238 6.0603C26.9197 6.04479 27.0109 6.107 27.0311 6.20202C27.1247 6.64116 27.4256 7.00331 27.8363 7.1708L39.7276 12.027C40.6504 12.4025 41.343 13.2042 41.5803 14.1713L44.8878 27.6306C44.9011 27.6849 44.8888 27.7424 44.8542 27.7864C44.8197 27.8304 44.7669 27.8562 44.711 27.8562ZM25.3561 27.4921H44.4788L41.2267 14.2582C41.0171 13.404 40.4053 12.6959 39.5901 12.3641L27.6988 7.50793C27.4769 7.41749 27.2803 7.2825 27.1183 7.11446C27.3173 9.8032 26.9546 11.7775 26.5068 14.2141C25.9594 17.1935 25.2793 20.8952 25.3561 27.4921Z" fill="var(--fill-0, #1E2939)"/>
</g>
<g id="Group_4">
<path id="Vector_7" d="M25.1771 27.6747H19.996C20.1193 18.6569 18.705 14.9994 18.142 11.2579C18.1588 11.2663 22.3457 13.3051 26.8238 11.1655C26.3533 14.9406 25.0538 18.5841 25.1771 27.6747Z" fill="var(--fill-0, #1E2939)"/>
<path id="Vector_8" d="M25.1771 27.8564H19.996C19.9473 27.8564 19.9006 27.8369 19.8664 27.8022C19.8322 27.7675 19.8133 27.7206 19.8139 27.6719C19.9065 20.8999 19.1268 17.1472 18.5003 14.1317C18.2953 13.1451 18.1017 12.2132 17.962 11.2847C17.9519 11.2175 17.98 11.1503 18.035 11.1104C18.0898 11.0704 18.1625 11.0644 18.2233 11.0947C18.2636 11.1144 22.3856 13.0839 26.7452 11.0009C26.8054 10.9722 26.8762 10.9786 26.9302 11.0175C26.9841 11.0564 27.0126 11.1217 27.0043 11.1876C26.8812 12.1761 26.699 13.1688 26.5062 14.2197C25.9546 17.2258 25.2681 20.9669 25.3589 27.6719C25.3596 27.7207 25.3407 27.7676 25.3065 27.8022C25.2725 27.8369 25.2257 27.8564 25.1771 27.8564ZM20.1804 27.4923H24.9927C24.9163 20.8673 25.5988 17.148 26.1482 14.154C26.3188 13.224 26.4811 12.34 26.6006 11.4676C22.8688 13.1054 19.4082 11.9722 18.3732 11.556C18.5059 12.3685 18.677 13.1919 18.8568 14.0576C19.4811 17.0629 20.2569 20.7969 20.1804 27.4923Z" fill="var(--fill-0, #1E2939)"/>
</g>
<g id="Group_5">
<path id="Vector_9" d="M26.975 9.40369C22.777 11.8541 18.2737 9.68652 17.9517 9.5157C17.8872 8.51591 17.904 7.45452 18.0413 6.23906C18.0609 6.14107 18.0749 6.04303 18.0749 5.9422C18.0777 5.9338 18.0777 5.92818 18.0777 5.91984V0.181497H26.8154V5.91984C26.8154 5.92824 26.8154 5.93386 26.8182 5.9422C26.8182 6.04303 26.8322 6.14385 26.8518 6.23906C26.9863 7.40967 27.0143 8.43467 26.975 9.40369Z" fill="var(--fill-0, white)"/>
<path id="Vector_10" d="M22.5769 10.7478C19.9314 10.7478 17.8972 9.69329 17.8663 9.67692C17.8105 9.64733 17.774 9.59086 17.77 9.52778C17.7007 8.45318 17.7303 7.37085 17.8603 6.21902C17.8609 6.21389 17.8617 6.20876 17.8627 6.20375C17.8835 6.09984 17.8928 6.01928 17.8928 5.94261C17.8928 5.93192 17.8938 5.9213 17.8956 5.91079V0.181908C17.8956 0.0813916 17.9771 -9.75105e-05 18.0776 -9.75105e-05H26.8154C26.9159 -9.75105e-05 26.9974 0.0813916 26.9974 0.181908V5.91079C26.9992 5.92123 27.0002 5.93192 27.0002 5.94261C27.0002 6.02008 27.0099 6.10515 27.03 6.20277C27.0311 6.20802 27.032 6.21333 27.0326 6.21871C27.1587 7.31679 27.1994 8.36119 27.1569 9.41145C27.1544 9.47348 27.1204 9.53 27.0668 9.56133C25.5367 10.4544 23.9716 10.7478 22.5769 10.7478ZM18.1269 9.39977C18.782 9.71374 22.8944 11.5129 26.7969 9.29654C26.8321 8.30144 26.791 7.3095 26.6719 6.26801C26.6494 6.15724 26.6378 6.05709 26.6363 5.96281C26.6334 5.94428 26.6334 5.92964 26.6334 5.92019V0.363912H18.2597V5.92019C18.2597 5.9297 18.2597 5.94434 18.2567 5.96281C18.2553 6.05499 18.2439 6.1526 18.2213 6.26739C18.0986 7.3575 18.0676 8.38336 18.1269 9.39977Z" fill="var(--fill-0, #1E2939)"/>
</g>
<path id="Vector_11" d="M18.0777 3.02324C18.9552 6.51284 20.3461 8.27512 22.555 8.27512C24.722 8.27512 26.0499 6.5614 26.7174 3.09898L18.0777 3.02324Z" fill="var(--fill-0, #E6E7E8)"/>
<g id="Group_6">
<path id="Vector_12" d="M18.1414 11.2566C18.0554 10.6852 17.9389 9.51029 17.9514 9.51684C17.8875 8.51538 17.9034 7.4535 18.0405 6.23816C17.9368 6.72857 17.6017 7.14546 17.1255 7.33964L5.23434 12.1958C4.36058 12.5514 3.71368 13.302 3.4896 14.215L0.182105 27.6744H19.9968C20.1189 18.6566 18.7053 14.9998 18.1414 11.2566Z" fill="var(--fill-0, #F3F4F6)"/>
<path id="Vector_13" d="M19.9968 27.8565H0.182029C0.126117 27.8565 0.0732948 27.8308 0.0387594 27.7868C0.00422401 27.7428 -0.00807081 27.6854 0.00527382 27.6311L3.3127 14.1717C3.55 13.2046 4.24269 12.403 5.16563 12.0273L17.0566 7.17124C17.4681 7.00351 17.7693 6.64067 17.8623 6.20067C17.8824 6.10565 17.9735 6.04325 18.0695 6.05864C18.1654 6.07414 18.2322 6.16218 18.2213 6.25874C18.0944 7.38457 18.0655 8.44657 18.133 9.50542C18.1336 9.51456 18.1335 9.52371 18.1327 9.53266C18.1385 9.66228 18.2402 10.6901 18.3213 11.2288C18.3213 11.2291 18.3213 11.2294 18.3214 11.2296C18.4597 12.1482 18.6524 13.075 18.8563 14.0563C19.4866 17.0893 20.271 20.8641 20.1788 27.6771C20.1774 27.7765 20.0964 27.8565 19.9968 27.8565ZM0.414262 27.4924H19.817C19.8927 20.8321 19.121 17.1192 18.4998 14.1302C18.2959 13.1492 18.1034 12.2224 17.9637 11.2989C17.9612 11.2885 17.9596 11.2779 17.9589 11.2671C17.9065 10.9146 17.8508 10.402 17.8291 10.1958C17.7898 9.82248 17.7698 9.63287 17.7711 9.52834L17.7696 9.5284C17.7188 8.73224 17.7214 7.93478 17.7781 7.11113C17.6155 7.28084 17.4176 7.41706 17.1941 7.50819L5.30297 12.3643C4.48759 12.6962 3.87577 13.4042 3.66621 14.2584L0.414262 27.4924Z" fill="var(--fill-0, #1E2939)"/>
</g>
<path id="Vector_14" d="M7.30003 27.8333C7.22083 27.8333 7.14793 27.7811 7.12513 27.7012C6.66004 26.0733 5.39941 16.5507 5.34603 16.1461C5.33287 16.0465 5.40299 15.955 5.50265 15.9418C5.60187 15.9283 5.6938 15.9987 5.70695 16.0984C5.71999 16.1973 7.01745 25.999 7.47524 27.6012C7.50286 27.6978 7.44688 27.7986 7.35026 27.8262C7.33345 27.8309 7.31659 27.8333 7.30003 27.8333Z" fill="var(--fill-0, #1E2939)"/>
<path id="Vector_15" d="M37.5929 27.8333C37.5764 27.8333 37.5595 27.831 37.5428 27.8262C37.4462 27.7986 37.3902 27.6978 37.4179 27.6011C37.8757 25.9989 39.173 16.1972 39.1861 16.0984C39.1992 15.9987 39.2911 15.9284 39.3904 15.9418C39.49 15.9549 39.5602 16.0464 39.547 16.1461C39.4936 16.5507 38.233 26.0734 37.7679 27.7012C37.7451 27.7811 37.6722 27.8333 37.5929 27.8333Z" fill="var(--fill-0, #1E2939)"/>
<path id="Vector_16" d="M34.559 18.4043H29.798C29.6974 18.4043 29.616 18.3228 29.616 18.2223V16.472C29.616 16.3714 29.6975 16.29 29.798 16.29H34.559C34.6595 16.29 34.741 16.3715 34.741 16.472V18.2223C34.741 18.3229 34.6595 18.4043 34.559 18.4043ZM29.98 18.0403H34.3769V16.654H29.98V18.0403Z" fill="var(--fill-0, #1E2939)"/>
</g>
</svg>
