<svg preserveAspectRatio="none" width="100%" height="100%" overflow="visible" style="display: block;" viewBox="0 0 17 19" fill="none" xmlns="http://www.w3.org/2000/svg">
<g id="Group">
<g id="Group_2">
<path id="Vector" d="M13.9307 11.5598C13.8663 12.4699 13.7654 13.4165 13.6114 14.3183C13.547 14.6936 13.4714 15.0633 13.3874 15.4189C13.0401 16.8752 11.4214 18.7824 8.69083 18.7824C8.69083 18.7824 4.84566 18.816 4.03349 15.5589C3.93551 15.1613 3.84865 14.744 3.77587 14.3183C3.61901 13.4137 3.51824 12.4643 3.45381 11.5513C3.26056 8.77873 3.40339 6.3171 3.40339 6.3171L13.9783 6.31987C13.9783 6.32 14.1268 8.7817 13.9307 11.5598Z" fill="var(--fill-0, white)"/>
<path id="Vector_2" d="M8.68236 18.964C8.57783 18.964 7.64358 18.9525 6.60276 18.562C5.15357 18.0183 4.20407 16.995 3.85686 15.6025C3.75721 15.1981 3.6696 14.7764 3.59639 14.3485C3.45349 13.5243 3.34439 12.5872 3.27217 11.5637C3.08034 8.81129 3.22015 6.33088 3.22157 6.3061C3.22713 6.20985 3.30683 6.13466 3.40327 6.13466L13.9783 6.13744C14.0745 6.13744 14.1541 6.21238 14.1599 6.30851C14.1614 6.33322 14.3068 8.81401 14.1121 11.5721V11.5721C14.0404 12.5855 13.9323 13.5196 13.7907 14.3485C13.7267 14.7215 13.6505 15.0955 13.5644 15.4603C13.3636 16.3025 12.8114 17.15 12.0493 17.7861C11.4055 18.3234 10.3002 18.964 8.6907 18.964C8.68941 18.964 8.6865 18.964 8.68236 18.964ZM3.57662 6.4988C3.54925 7.10362 3.47407 9.22386 3.63544 11.5383C3.70673 12.5494 3.81435 13.4742 3.95528 14.2868C4.02707 14.7064 4.11288 15.1196 4.21031 15.5149C4.53169 16.8036 5.37969 17.7143 6.73071 18.2212C7.75003 18.6035 8.68014 18.6002 8.68928 18.5999C10.1913 18.5999 11.2186 18.0053 11.8162 17.5066C12.509 16.9284 13.0301 16.132 13.2103 15.3762C13.2947 15.0191 13.3693 14.6526 13.4321 14.287C13.5716 13.47 13.6783 12.5479 13.7492 11.5464C13.9129 9.22596 13.834 7.10548 13.8055 6.50145L3.57662 6.4988Z" fill="var(--fill-0, #1E2939)"/>
</g>
<path id="Vector_3" d="M3.07287 11.8883C3.07287 11.8883 4.64408 11.2155 4.3437 8.36203C4.3437 8.36203 5.08309 8.9188 6.07665 7.59645C6.07665 7.59645 7.46301 9.08122 8.84936 7.38764C8.84936 7.38764 9.61186 8.52439 10.9289 7.78204C10.9289 7.78204 11.6452 8.9188 12.5925 8.80284C12.5925 8.80284 12.916 11.378 14.2331 12.0044L15.5732 12.2827C15.5732 12.2827 17.9069 10.1948 16.4281 8.38526C16.4281 8.38526 17.2368 6.64534 16.2202 5.55492C16.2202 5.55492 17.4448 2.72458 14.5103 2.4462C14.5103 2.4462 14.3255 -0.22172 11.4372 1.19342C11.4372 1.19342 10.9058 -0.128926 9.45012 0.0102651C7.99444 0.149456 7.37058 1.17025 7.37058 1.17025C7.37058 1.17025 6.09061 -0.26929 4.56568 0.565856C3.04068 1.401 3.18846 2.67819 3.18846 2.67819C3.18846 2.67819 1.82706 1.85515 1.01835 2.80632C0.209645 3.75749 0.855007 4.90672 0.855007 4.90672C0.855007 4.90672 -0.971726 6.78528 0.715011 8.71078C0.715011 8.71078 -1.10536 11.488 1.82527 12.3059L3.07287 11.8883Z" fill="var(--fill-0, #1E2939)"/>
<path id="Vector_4" d="M8.67302 14.514C8.35127 14.514 8.06936 14.4069 7.93276 14.2263C7.53768 13.7038 8.02247 11.7592 8.1236 11.3747C8.14924 11.2775 8.24865 11.2195 8.34595 11.2449C8.4432 11.2705 8.50127 11.37 8.47569 11.4673C8.08895 12.9378 8.09519 13.8375 8.22313 14.0068C8.34287 14.1651 8.91366 14.2444 9.34903 13.9334C9.43088 13.8749 9.5445 13.8938 9.60294 13.9757C9.66139 14.0575 9.64242 14.1712 9.56062 14.2296C9.28397 14.4273 8.9624 14.5139 8.67302 14.514Z" fill="var(--fill-0, #1E2939)"/>
<path id="Vector_5" d="M6.63104 11.9544C6.83727 11.9544 7.00444 11.7872 7.00444 11.581C7.00444 11.3748 6.83727 11.2076 6.63104 11.2076C6.42482 11.2076 6.25764 11.3748 6.25764 11.581C6.25764 11.7872 6.42482 11.9544 6.63104 11.9544Z" fill="var(--fill-0, #1E2939)"/>
<path id="Vector_6" d="M8.66531 15.7256C8.43771 15.7256 8.2124 15.6795 8.01995 15.5833C7.93 15.5384 7.89361 15.429 7.93859 15.3391C7.98356 15.2492 8.09285 15.2126 8.18281 15.2577C8.56158 15.4471 9.13003 15.3752 9.42417 15.1007C9.49762 15.0322 9.61278 15.0361 9.68148 15.1096C9.75006 15.1831 9.74611 15.2983 9.67259 15.3669C9.42275 15.6 9.04094 15.7256 8.66531 15.7256Z" fill="var(--fill-0, #1E2939)"/>
<path id="Vector_7" d="M5.56196 10.3467C5.62262 10.1593 5.73896 10.01 5.88958 9.88658C6.04051 9.76567 6.23345 9.67887 6.44313 9.65502C6.65251 9.63087 6.8714 9.67591 7.04729 9.7742C7.22336 9.87286 7.3641 10.0117 7.44707 10.1826C7.47907 10.2485 7.45158 10.3281 7.38554 10.3601C7.35514 10.3748 7.3219 10.3769 7.29181 10.3685L7.28539 10.3667C7.12062 10.3203 6.98347 10.2738 6.85466 10.246C6.72609 10.2179 6.61068 10.2079 6.49126 10.2112C6.37209 10.2169 6.2463 10.2392 6.11013 10.2798C5.97409 10.3187 5.82804 10.3768 5.66976 10.436L5.65945 10.4398C5.62071 10.4543 5.57752 10.4346 5.56307 10.3959C5.55689 10.3795 5.55695 10.3622 5.56196 10.3467Z" fill="var(--fill-0, #1E2939)"/>
<path id="Vector_8" d="M10.7152 11.9544C10.9214 11.9544 11.0886 11.7872 11.0886 11.581C11.0886 11.3748 10.9214 11.2076 10.7152 11.2076C10.509 11.2076 10.3418 11.3748 10.3418 11.581C10.3418 11.7872 10.509 11.9544 10.7152 11.9544Z" fill="var(--fill-0, #1E2939)"/>
<path id="Vector_9" d="M11.6765 10.436C11.5182 10.3769 11.3722 10.3188 11.2361 10.2799C11.1 10.2393 10.9742 10.217 10.855 10.2113C10.7356 10.208 10.6202 10.218 10.4916 10.2461C10.3628 10.2739 10.2256 10.3203 10.0609 10.3667L10.0547 10.3685C9.98409 10.3884 9.91069 10.3472 9.89086 10.2765C9.88172 10.244 9.88561 10.2107 9.8992 10.1826C9.98211 10.0116 10.1229 9.87286 10.299 9.7742C10.4749 9.67591 10.6937 9.63087 10.9031 9.65502C11.1128 9.67893 11.3058 9.76567 11.4567 9.88658C11.6073 10.01 11.7236 10.1593 11.7843 10.3467C11.797 10.386 11.7755 10.4282 11.7361 10.441C11.7194 10.4464 11.7021 10.4456 11.6869 10.4399L11.6765 10.436Z" fill="var(--fill-0, #1E2939)"/>
<g id="Group_3">
<path id="Vector_10" d="M3.77587 14.3182C1.91627 14.517 0.501987 12.4138 1.60261 11.372C2.30555 10.7027 3.1205 11.2628 3.45381 11.5512C3.51824 12.4642 3.61907 13.4136 3.77587 14.3182Z" fill="var(--fill-0, white)"/>
<path id="Vector_11" d="M3.51978 14.5143C2.4039 14.5143 1.55275 13.7782 1.21308 13.0419C0.901085 12.3657 0.999934 11.6921 1.4775 11.2401C2.04211 10.7023 2.82568 10.7671 3.57298 11.4139C3.60955 11.4456 3.63204 11.4905 3.63544 11.5387C3.70679 12.5501 3.81442 13.4748 3.95528 14.2874C3.96386 14.337 3.95157 14.3879 3.92123 14.4282C3.8909 14.4683 3.84537 14.4942 3.79533 14.4995C3.70185 14.5094 3.60986 14.5143 3.51978 14.5143ZM2.35163 11.2397C2.14362 11.2397 1.9298 11.3121 1.72814 11.5041C1.3637 11.8491 1.29661 12.3538 1.54367 12.8893C1.84738 13.5477 2.62464 14.1652 3.56278 14.1492C3.43971 13.3954 3.34396 12.5532 3.27773 11.6412C3.04735 11.4526 2.70811 11.2397 2.35163 11.2397Z" fill="var(--fill-0, #1E2939)"/>
</g>
<g id="Group_4">
<path id="Vector_12" d="M13.6115 14.3186C13.7655 13.4168 13.8663 12.4703 13.9307 11.5601C14.2556 11.2744 15.079 10.6975 15.7903 11.3725C16.8937 12.4171 15.471 14.5203 13.6115 14.3186Z" fill="var(--fill-0, white)"/>
<path id="Vector_13" d="M13.8584 14.5139C13.7706 14.5139 13.6819 14.5092 13.5918 14.4995C13.5419 14.4941 13.4964 14.4683 13.4661 14.4282C13.4358 14.3881 13.4235 14.3374 13.432 14.2879C13.5715 13.4708 13.6782 12.5486 13.7491 11.5471C13.7525 11.4994 13.7745 11.4549 13.8104 11.4232C14.5572 10.7666 15.3442 10.6983 15.9155 11.2403C16.3933 11.6927 16.4921 12.3664 16.1796 13.0423C15.8281 13.8027 14.9369 14.5139 13.8584 14.5139ZM13.824 14.1496C13.8359 14.1498 13.8479 14.1499 13.8598 14.1499C14.7845 14.1499 15.5481 13.541 15.8492 12.8895C16.0966 12.3543 16.0295 11.8495 15.6651 11.5045C15.4201 11.2719 14.896 10.9886 14.1068 11.6486C14.041 12.5526 13.946 13.3925 13.824 14.1496Z" fill="var(--fill-0, #1E2939)"/>
</g>
<path id="Vector_14" d="M3.46856 13.2104C3.43644 13.2104 3.40382 13.2019 3.37428 13.184L2.52826 12.6706C2.44232 12.6185 2.41495 12.5065 2.4671 12.4205C2.51924 12.3346 2.63112 12.3072 2.71718 12.3594L3.56321 12.8728C3.64915 12.925 3.67651 13.037 3.62437 13.1229C3.59014 13.1792 3.5301 13.2104 3.46856 13.2104Z" fill="var(--fill-0, #1E2939)"/>
<path id="Vector_15" d="M13.9244 13.2105C13.8629 13.2105 13.8029 13.1793 13.7686 13.1229C13.7164 13.0369 13.7438 12.9249 13.8297 12.8728L14.6758 12.3593C14.7619 12.3072 14.8737 12.3346 14.9259 12.4205C14.978 12.5064 14.9506 12.6184 14.8647 12.6706L14.0187 13.184C13.9891 13.2019 13.9565 13.2105 13.9244 13.2105Z" fill="var(--fill-0, #1E2939)"/>
</g>
</svg>
