<svg width="42" height="42" viewBox="0 0 42 42" fill="none" xmlns="http://www.w3.org/2000/svg">
<mask id="mask0_1268_16095" style="mask-type:alpha" maskUnits="userSpaceOnUse" x="0" y="0" width="42" height="42">
<circle cx="21" cy="21" r="21" fill="#D9D9D9"/>
<circle cx="21" cy="21" r="21" fill="black" fill-opacity="0.2"/>
</mask>
<g mask="url(#mask0_1268_16095)">
<path d="M24.8543 29.7686C24.829 30.3734 24.7759 30.9532 24.703 31.5301C20.2249 33.6697 16.0381 31.6309 16.0213 31.6225C15.9345 31.0512 15.8673 30.4771 15.8308 29.8806C16.1529 30.0514 20.6562 32.219 24.8543 29.7686Z" fill="white"/>
<path d="M20.3415 32.6914C17.7991 32.6914 15.9677 31.7993 15.9399 31.7855C15.887 31.7591 15.8502 31.7085 15.8413 31.65C15.7459 31.022 15.683 30.4469 15.6491 29.8918C15.6451 29.8261 15.6769 29.7633 15.7323 29.7277C15.7877 29.6921 15.8581 29.6891 15.9162 29.7199C15.9615 29.7439 20.5031 32.0978 24.7625 29.6115C24.82 29.578 24.8912 29.5784 24.9482 29.6128C25.0052 29.6471 25.0389 29.7098 25.0362 29.7762C25.0124 30.3471 24.9625 30.9283 24.8837 31.553C24.876 31.6144 24.8374 31.6678 24.7816 31.6944C23.2112 32.4448 21.678 32.6914 20.3415 32.6914ZM16.1866 31.498C16.791 31.7633 20.5527 33.2616 24.5348 31.4083C24.5908 30.9493 24.6308 30.5138 24.6559 30.0879C20.9412 32.0708 17.1001 30.6476 16.0342 30.1773C16.0676 30.5976 16.1179 31.0331 16.1866 31.498Z" fill="#1E2939"/>
<path d="M23.0554 48.0389H42.5901L39.2826 34.5795C39.0586 33.6665 38.4117 32.916 37.5379 32.5603L25.6467 27.7042C25.1711 27.5103 24.8365 27.0943 24.7322 26.6047C25.4916 33.2693 22.8823 35.3285 23.0554 48.0389Z" fill="#F3F4F6"/>
<path d="M42.5901 48.2209H23.0554C22.9558 48.2209 22.8748 48.1409 22.8734 48.0413C22.7815 41.296 23.4726 37.535 24.0279 34.5129C24.5183 31.8437 24.9057 29.7355 24.5513 26.6253C24.5403 26.5288 24.607 26.4406 24.7029 26.425C24.7988 26.4095 24.89 26.4717 24.9102 26.5667C25.0038 27.0058 25.3048 27.368 25.7154 27.5355L37.6067 32.3917C38.5295 32.7672 39.2222 33.5689 39.4595 34.536L42.7669 47.9953C42.7802 48.0496 42.7679 48.1071 42.7334 48.1511C42.6988 48.1951 42.6461 48.2209 42.5901 48.2209ZM23.2352 47.8568H42.3579L39.1058 34.6229C38.8962 33.7687 38.2845 33.0606 37.4693 32.7288L25.5779 27.8726C25.356 27.7822 25.1595 27.6472 24.9975 27.4791C25.1965 30.1679 24.8337 32.1422 24.386 34.5787C23.8385 37.5582 23.1584 41.2599 23.2352 47.8568Z" fill="#1E2939"/>
<path d="M23.0563 48.0394H17.8752C17.9985 39.0217 16.5842 35.3642 16.0212 31.6227C16.038 31.6311 20.2249 33.6699 24.703 31.5303C24.2325 35.3054 22.933 38.9489 23.0563 48.0394Z" fill="#1E2939"/>
<path d="M23.0562 48.2212H17.8752C17.8265 48.2212 17.7798 48.2017 17.7455 48.167C17.7113 48.1323 17.6925 48.0854 17.6931 48.0367C17.7856 41.2647 17.006 37.512 16.3794 34.4965C16.1745 33.5099 15.9808 32.578 15.8411 31.6495C15.831 31.5824 15.8592 31.5151 15.9141 31.4752C15.969 31.4353 16.0416 31.4292 16.1024 31.4595C16.1427 31.4792 20.2647 33.4487 24.6244 31.3657C24.6845 31.337 24.7553 31.3434 24.8093 31.3823C24.8633 31.4212 24.8918 31.4865 24.8835 31.5525C24.7603 32.5409 24.5782 33.5336 24.3853 34.5845C23.8337 37.5906 23.1472 41.3317 23.2381 48.0367C23.2388 48.0855 23.2199 48.1324 23.1856 48.167C23.1516 48.2017 23.1049 48.2212 23.0562 48.2212ZM18.0595 47.8571H22.8719C22.7954 41.2321 23.4779 37.5128 24.0273 34.5188C24.198 33.5888 24.3602 32.7048 24.4798 31.8324C20.748 33.4702 17.2874 32.337 16.2524 31.9208C16.385 32.7333 16.5561 33.5567 16.736 34.4224C17.3603 37.4277 18.136 41.1618 18.0595 47.8571Z" fill="#1E2939"/>
<path d="M24.8542 29.7686C20.6562 32.219 16.1529 30.0514 15.8309 29.8806C15.7664 28.8808 15.7832 27.8194 15.9205 26.6039C15.9401 26.506 15.9541 26.4079 15.9541 26.3071C15.9569 26.2987 15.9569 26.2931 15.9569 26.2847V20.5464H24.6946V26.2847C24.6946 26.2931 24.6946 26.2988 24.6974 26.3071C24.6974 26.4079 24.7114 26.5087 24.731 26.6039C24.8655 27.7746 24.8935 28.7996 24.8542 29.7686Z" fill="white"/>
<path d="M20.456 31.1126C17.8106 31.1126 15.7764 30.0581 15.7455 30.0418C15.6896 30.0122 15.6532 29.9557 15.6491 29.8926C15.5799 28.818 15.6095 27.7357 15.7395 26.5839C15.7401 26.5787 15.7409 26.5736 15.7419 26.5686C15.7627 26.4647 15.772 26.3841 15.772 26.3075C15.772 26.2968 15.7729 26.2861 15.7748 26.2756V20.5468C15.7748 20.4462 15.8563 20.3647 15.9568 20.3647H24.6946C24.7951 20.3647 24.8766 20.4462 24.8766 20.5468V26.2756C24.8784 26.2861 24.8793 26.2968 24.8793 26.3075C24.8793 26.3849 24.8891 26.47 24.9092 26.5676C24.9103 26.5729 24.9112 26.5782 24.9118 26.5835C25.0379 27.6816 25.0785 28.726 25.0361 29.7763C25.0335 29.8383 24.9996 29.8948 24.9459 29.9262C23.4159 30.8192 21.8508 31.1126 20.456 31.1126ZM16.006 29.7646C16.6612 30.0786 20.7736 31.8778 24.6761 29.6614C24.7112 28.6663 24.6702 27.6743 24.551 26.6329C24.5286 26.5221 24.5169 26.4219 24.5155 26.3277C24.5125 26.3091 24.5125 26.2945 24.5125 26.285V20.7288H16.1389V26.285C16.1389 26.2945 16.1389 26.3092 16.1359 26.3277C16.1345 26.4198 16.123 26.5174 16.1004 26.6322C15.9777 27.7223 15.9468 28.7482 16.006 29.7646Z" fill="#1E2939"/>
<path d="M15.9568 23.3879C16.8343 26.8775 18.2252 28.6398 20.4342 28.6398C22.6011 28.6398 23.929 26.9261 24.5965 23.4637L15.9568 23.3879Z" fill="#E6E7E8"/>
<path d="M16.0206 31.6214C15.9346 31.0501 15.8181 29.8752 15.8306 29.8817C15.7667 28.8802 15.7826 27.8184 15.9197 26.603C15.8159 27.0934 15.4809 27.5103 15.0047 27.7045L3.11352 32.5606C2.23975 32.9163 1.59285 33.6669 1.36877 34.5799L-1.93872 48.0392H17.876C17.998 39.0214 16.5844 35.3646 16.0206 31.6214Z" fill="#F3F4F6"/>
<path d="M17.8759 48.2213H-1.93882C-1.99474 48.2213 -2.04756 48.1956 -2.08209 48.1517C-2.11663 48.1077 -2.12892 48.0502 -2.11558 47.9959L1.19185 34.5365C1.42915 33.5695 2.12184 32.7678 3.04478 32.3921L14.9358 27.5361C15.3472 27.3683 15.6484 27.0055 15.7414 26.5655C15.7616 26.4705 15.8527 26.4081 15.9487 26.4235C16.0445 26.439 16.1113 26.527 16.1005 26.6236C15.9735 27.7494 15.9446 28.8114 16.0122 29.8703C16.0128 29.8794 16.0127 29.8885 16.0119 29.8975C16.0176 30.0271 16.1193 31.0549 16.2004 31.5937C16.2004 31.5939 16.2005 31.5942 16.2005 31.5945C16.3389 32.513 16.5315 33.4399 16.7354 34.4211C17.3657 37.4542 18.1502 41.2289 18.0579 48.0419C18.0566 48.1413 17.9755 48.2213 17.8759 48.2213ZM-1.70659 47.8573H17.6961C17.7718 41.1969 17.0001 37.484 16.379 34.495C16.1751 33.5141 15.9825 32.5872 15.8428 31.6637C15.8403 31.6533 15.8388 31.6427 15.8381 31.632C15.7856 31.2794 15.73 30.7669 15.7082 30.5606C15.6689 30.1873 15.6489 29.9977 15.6503 29.8932L15.6488 29.8932C15.598 29.0971 15.6006 28.2996 15.6572 27.476C15.4946 27.6457 15.2968 27.7819 15.0732 27.873L3.18211 32.7291C2.36673 33.061 1.75492 33.7691 1.54536 34.6232L-1.70659 47.8573Z" fill="#1E2939"/>
<path d="M5.17922 48.1981C5.10002 48.1981 5.02712 48.1459 5.00432 48.066C4.53923 46.4381 3.2786 36.9155 3.22522 36.5109C3.21206 36.4112 3.28218 36.3197 3.38183 36.3066C3.48105 36.2931 3.57298 36.3635 3.58614 36.4632C3.59918 36.562 4.89664 46.3637 5.35443 47.9659C5.38205 48.0626 5.32607 48.1634 5.22945 48.191C5.21264 48.1957 5.19578 48.1981 5.17922 48.1981Z" fill="#1E2939"/>
<path d="M35.4721 48.198C35.4555 48.198 35.4387 48.1958 35.422 48.191C35.3253 48.1634 35.2693 48.0626 35.297 47.9659C35.7548 46.3637 37.0522 36.562 37.0652 36.4632C37.0784 36.3635 37.1702 36.2932 37.2695 36.3066C37.3692 36.3197 37.4394 36.4112 37.4261 36.5109C37.3727 36.9155 36.1121 46.4382 35.647 48.066C35.6242 48.1459 35.5513 48.198 35.4721 48.198Z" fill="#1E2939"/>
<path d="M32.4381 38.7691H27.6771C27.5765 38.7691 27.4951 38.6876 27.4951 38.5871V36.8368C27.4951 36.7362 27.5766 36.6548 27.6771 36.6548H32.4381C32.5386 36.6548 32.6201 36.7363 32.6201 36.8368V38.5871C32.6201 38.6877 32.5386 38.7691 32.4381 38.7691ZM27.8591 38.4051H32.256V37.0188H27.8591V38.4051Z" fill="#1E2939"/>
<path d="M25.5598 18.5598C25.4954 19.47 25.3946 20.4166 25.2405 21.3184C25.1761 21.6936 25.1005 22.0633 25.0165 22.419C24.6692 23.8753 23.0505 25.7824 20.32 25.7824C20.32 25.7824 16.4748 25.816 15.6626 22.559C15.5646 22.1613 15.4778 21.744 15.405 21.3183C15.2481 20.4137 15.1474 19.4643 15.0829 18.5514C14.8897 15.7788 15.0325 13.3171 15.0325 13.3171L25.6074 13.3199C25.6074 13.32 25.7559 15.7817 25.5598 18.5598Z" fill="white"/>
<path d="M20.3115 25.9638C20.2069 25.9638 19.2727 25.9523 18.2319 25.5619C16.7827 25.0182 15.8332 23.9948 15.486 22.6024C15.3863 22.198 15.2987 21.7763 15.2255 21.3484C15.0826 20.5242 14.9735 19.5871 14.9013 18.5636C14.7094 15.8112 14.8493 13.3307 14.8507 13.306C14.8562 13.2097 14.9359 13.1345 15.0324 13.1345L25.6074 13.1373C25.7036 13.1373 25.7832 13.2122 25.789 13.3084C25.7905 13.3331 25.9359 15.8139 25.7413 18.5719V18.572C25.6695 19.5854 25.5614 20.5195 25.4198 21.3483C25.3558 21.7214 25.2796 22.0954 25.1935 22.4601C24.9927 23.3023 24.4405 24.1499 23.6785 24.7859C23.0346 25.3233 21.9293 25.9638 20.3198 25.9638C20.3185 25.9638 20.3156 25.9638 20.3115 25.9638ZM15.2057 13.4987C15.1784 14.1035 15.1032 16.2237 15.2645 18.5381C15.3358 19.5493 15.4435 20.4741 15.5844 21.2866C15.6562 21.7063 15.742 22.1194 15.8394 22.5148C16.1608 23.8035 17.0088 24.7142 18.3598 25.221C19.3791 25.6034 20.3092 25.6001 20.3184 25.5997C21.8204 25.5997 22.8477 25.0052 23.4454 24.5064C24.1381 23.9283 24.6592 23.1319 24.8394 22.376C24.9238 22.019 24.9984 21.6524 25.0612 21.2869C25.2007 20.4699 25.3074 19.5477 25.3783 18.5463C25.542 16.2258 25.4631 14.1053 25.4346 13.5013L15.2057 13.4987Z" fill="#1E2939"/>
<path d="M14.702 18.8883C14.702 18.8883 16.2732 18.2155 15.9729 15.362C15.9729 15.362 16.7122 15.9188 17.7058 14.5965C17.7058 14.5965 19.0922 16.0812 20.4785 14.3876C20.4785 14.3876 21.241 15.5244 22.5581 14.782C22.5581 14.782 23.2743 15.9188 24.2217 15.8028C24.2217 15.8028 24.5452 18.378 25.8622 19.0044L27.2024 19.2827C27.2024 19.2827 29.5361 17.1948 28.0573 15.3853C28.0573 15.3853 28.866 13.6453 27.8493 12.5549C27.8493 12.5549 29.0739 9.72458 26.1395 9.4462C26.1395 9.4462 25.9546 6.77828 23.0664 8.19342C23.0664 8.19342 22.5349 6.87107 21.0793 7.01027C19.6236 7.14946 18.9997 8.17025 18.9997 8.17025C18.9997 8.17025 17.7198 6.73071 16.1948 7.56586C14.6698 8.401 14.8176 9.67819 14.8176 9.67819C14.8176 9.67819 13.4562 8.85515 12.6475 9.80632C11.8388 10.7575 12.4842 11.9067 12.4842 11.9067C12.4842 11.9067 10.6574 13.7853 12.3442 15.7108C12.3442 15.7108 10.5238 18.488 13.4544 19.3059L14.702 18.8883Z" fill="#1E2939"/>
<path d="M20.3022 21.514C19.9805 21.514 19.6986 21.407 19.562 21.2264C19.1669 20.7038 19.6517 18.7592 19.7528 18.3747C19.7784 18.2775 19.8779 18.2196 19.9752 18.245C20.0724 18.2706 20.1305 18.3701 20.1049 18.4673C19.7182 19.9378 19.7244 20.8375 19.8523 21.0068C19.9721 21.1652 20.5429 21.2445 20.9782 20.9334C21.0601 20.875 21.1737 20.8939 21.2321 20.9757C21.2906 21.0575 21.2716 21.1712 21.1898 21.2296C20.9132 21.4273 20.5916 21.514 20.3022 21.514Z" fill="#1E2939"/>
<path d="M18.2602 18.9543C18.4665 18.9543 18.6336 18.7871 18.6336 18.5809C18.6336 18.3747 18.4665 18.2075 18.2602 18.2075C18.054 18.2075 17.8868 18.3747 17.8868 18.5809C17.8868 18.7871 18.054 18.9543 18.2602 18.9543Z" fill="#1E2939"/>
<path d="M20.2945 22.7256C20.0669 22.7256 19.8416 22.6795 19.6491 22.5832C19.5592 22.5383 19.5228 22.429 19.5677 22.339C19.6127 22.2491 19.722 22.2126 19.812 22.2577C20.1907 22.4471 20.7592 22.3752 21.0533 22.1007C21.1268 22.0322 21.2419 22.0361 21.3106 22.1096C21.3792 22.183 21.3753 22.2983 21.3017 22.3669C21.0519 22.6 20.6701 22.7256 20.2945 22.7256Z" fill="#1E2939"/>
<path d="M17.1911 17.3467C17.2518 17.1593 17.3681 17.0101 17.5188 16.8866C17.6697 16.7657 17.8626 16.6789 18.0723 16.6551C18.2817 16.6309 18.5006 16.676 18.6765 16.7743C18.8526 16.8729 18.9933 17.0118 19.0763 17.1826C19.1083 17.2486 19.0808 17.3281 19.0147 17.3601C18.9843 17.3749 18.9511 17.377 18.921 17.3685L18.9146 17.3667C18.7498 17.3204 18.6127 17.2739 18.4838 17.2461C18.3553 17.218 18.2399 17.208 18.1205 17.2113C18.0013 17.217 17.8755 17.2393 17.7393 17.2799C17.6033 17.3188 17.4572 17.3769 17.299 17.4361L17.2886 17.4399C17.2499 17.4543 17.2067 17.4347 17.1923 17.396C17.1861 17.3795 17.1861 17.3622 17.1911 17.3467Z" fill="#1E2939"/>
<path d="M22.3444 18.9543C22.5506 18.9543 22.7178 18.7871 22.7178 18.5809C22.7178 18.3747 22.5506 18.2075 22.3444 18.2075C22.1381 18.2075 21.9709 18.3747 21.9709 18.5809C21.9709 18.7871 22.1381 18.9543 22.3444 18.9543Z" fill="#1E2939"/>
<path d="M23.3056 17.4361C23.1473 17.377 23.0013 17.3189 22.8653 17.2799C22.7291 17.2394 22.6033 17.2171 22.4841 17.2114C22.3647 17.208 22.2493 17.218 22.1207 17.2461C21.9919 17.2739 21.8548 17.3204 21.69 17.3668L21.6838 17.3685C21.6132 17.3884 21.5398 17.3473 21.52 17.2766C21.5108 17.2441 21.5147 17.2108 21.5283 17.1826C21.6112 17.0117 21.752 16.8729 21.9281 16.7743C22.104 16.676 22.3228 16.6309 22.5323 16.6551C22.7419 16.679 22.9349 16.7657 23.0858 16.8866C23.2364 17.0101 23.3528 17.1593 23.4134 17.3467C23.4262 17.3861 23.4046 17.4283 23.3652 17.4411C23.3485 17.4465 23.3313 17.4457 23.316 17.44L23.3056 17.4361Z" fill="#1E2939"/>
<path d="M15.405 21.318C13.5454 21.5168 12.1311 19.4136 13.2318 18.3718C13.9347 17.7025 14.7496 18.2626 15.083 18.551C15.1474 19.464 15.2482 20.4134 15.405 21.318Z" fill="white"/>
<path d="M15.1489 21.5142C14.033 21.5142 13.1819 20.7781 12.8422 20.0418C12.5302 19.3656 12.6291 18.692 13.1066 18.24C13.6712 17.7022 14.4548 17.767 15.2021 18.4138C15.2387 18.4455 15.2612 18.4904 15.2646 18.5386C15.3359 19.55 15.4436 20.4747 15.5844 21.2873C15.593 21.3369 15.5807 21.3878 15.5504 21.428C15.52 21.4682 15.4745 21.4941 15.4245 21.4994C15.331 21.5093 15.239 21.5142 15.1489 21.5142ZM13.9808 18.2396C13.7728 18.2396 13.5589 18.312 13.3573 18.504C12.9928 18.849 12.9257 19.3537 13.1728 19.8892C13.4765 20.5476 14.2538 21.165 15.1919 21.1491C15.0689 20.3953 14.9731 19.5531 14.9069 18.6411C14.6765 18.4525 14.3372 18.2396 13.9808 18.2396Z" fill="#1E2939"/>
<path d="M25.2407 21.3188C25.3947 20.4169 25.4956 19.4704 25.56 18.5602C25.8848 18.2745 26.7083 17.6976 27.4196 18.3726C28.5229 19.4172 27.1003 21.5204 25.2407 21.3188Z" fill="white"/>
<path d="M25.4877 21.514C25.3999 21.514 25.3111 21.5093 25.221 21.4996C25.1711 21.4942 25.1256 21.4684 25.0954 21.4283C25.0651 21.3882 25.0527 21.3375 25.0612 21.288C25.2008 20.4709 25.3075 19.5487 25.3783 18.5472C25.3817 18.4995 25.4038 18.455 25.4397 18.4233C26.1865 17.7667 26.9734 17.6984 27.5447 18.2404C28.0225 18.6928 28.1214 19.3665 27.8089 20.0424C27.4574 20.8028 26.5662 21.514 25.4877 21.514ZM25.4532 21.1497C25.4652 21.1499 25.4771 21.15 25.4891 21.15C26.4137 21.15 27.1774 20.541 27.4785 19.8896C27.7259 19.3544 27.6588 18.8496 27.2944 18.5046C27.0494 18.272 26.5253 17.9887 25.7361 18.6487C25.6702 19.5527 25.5752 20.3926 25.4532 21.1497Z" fill="#1E2939"/>
<path d="M15.0977 20.2106C15.0656 20.2106 15.033 20.202 15.0034 20.1841L14.1574 19.6707C14.0715 19.6186 14.0441 19.5066 14.0963 19.4206C14.1484 19.3347 14.2603 19.3073 14.3463 19.3595L15.1924 19.8729C15.2783 19.9251 15.3057 20.0371 15.2535 20.123C15.2193 20.1794 15.1593 20.2106 15.0977 20.2106Z" fill="#1E2939"/>
<path d="M25.5536 20.2106C25.4921 20.2106 25.4321 20.1794 25.3978 20.123C25.3456 20.037 25.373 19.925 25.4589 19.8729L26.305 19.3594C26.3911 19.3073 26.5029 19.3347 26.5551 19.4206C26.6072 19.5065 26.5798 19.6185 26.4939 19.6707L25.6479 20.1841C25.6183 20.202 25.5857 20.2106 25.5536 20.2106Z" fill="#1E2939"/>
</g>
</svg>
