<svg width="30" height="24" viewBox="0 0 30 24" fill="none" xmlns="http://www.w3.org/2000/svg">
<path d="M13.8007 23.4416L0.186016 1.8334C-0.315748 1.03704 0.256566 0 1.19782 0H7.93925C8.34936 0 8.73086 0.210141 8.95004 0.556769L19.1984 16.7648C19.444 17.1532 19.4453 17.6481 19.2018 18.0378L15.8267 23.4379C15.3593 24.1857 14.2708 24.1877 13.8007 23.4416Z" fill="#1F2A37"/>
<path d="M14.5861 1.8301L21.8736 13.4801C21.9445 13.5934 22.1196 13.5228 22.092 13.392L20.921 7.84075C20.7642 7.09732 21.3314 6.39803 22.0912 6.39803H25.8742C26.2862 6.39803 26.6692 6.18598 26.8878 5.83681L29.3964 1.83056C29.8951 1.03408 29.3226 0 28.3828 0H15.6C14.6605 0 14.0879 1.03359 14.5861 1.8301Z" fill="#1F2A37"/>
</svg>
